<?xml version="1.0" encoding="UTF-8"?>
<svg width="50px" height="50px" viewBox="0 0 50 50" version="1.1" xmlns="http://www.w3.org/2000/svg" xmlns:xlink="http://www.w3.org/1999/xlink">
    <!-- Generator: Sketch 61 (89581) - https://sketch.com -->
    <title>Icons Crypto/Bitcoin Cash</title>
    <desc>Created with Sketch.</desc>
    <g id="Icons-Crypto/Bitcoin-Cash" stroke="none" stroke-width="1" fill="none" fill-rule="evenodd">
        <path d="M49.9155405,9.15202703 L49.9155405,40.3682432 L35.6587838,40.3682432 C38.1418919,38.6114865 40.152027,36.2804054 41.5540541,33.5608108 C42.9560811,30.8412162 43.6824324,27.8175676 43.6824324,24.7601351 C43.6824324,21.6858108 42.9560811,18.6790541 41.5540541,15.9594595 C40.152027,13.2398649 38.1418919,10.9087838 35.6587838,9.15202703 L35.6587838,9.15202703 L49.9155405,9.15202703 Z M14.2567568,9.15202703 C11.7736486,10.9087838 9.76351351,13.2398649 8.36148649,15.9594595 C6.95945946,18.6790541 6.23310811,21.6858108 6.23310811,24.7432432 C6.23310811,27.8006757 6.95945946,30.8243243 8.36148649,33.5439189 C9.76351351,36.2635135 11.7736486,38.5945946 14.2567568,40.3513514 L-1.76925141e-12,40.3513514 L-1.76925141e-12,9.15202703 L14.2567568,9.15202703 Z M24.9493243,9.15202703 C29.0202703,9.15202703 32.9391892,10.7905405 35.8108108,13.7128378 C38.6824324,16.6351351 40.3040541,20.6047297 40.3040541,24.7432432 C40.3040541,28.8817568 38.6824324,32.8513514 35.8108108,35.7736486 C32.9222973,38.6959459 29.0202703,40.3344595 24.9493243,40.3344595 C20.8783784,40.3344595 16.9594595,38.6959459 14.0878378,35.7736486 C11.2162162,32.8513514 9.59459459,28.8817568 9.59459459,24.7432432 C9.59459459,20.6047297 11.2162162,16.6351351 14.0878378,13.7128378 C16.9763514,10.7905405 20.8783784,9.15202703 24.9493243,9.15202703 Z M24.4155405,15 L22.7263514,15.4222973 L23.402027,18.1587838 C22.9628378,18.277027 22.5067568,18.3952703 22.0675676,18.5135135 L21.3918919,15.7601351 L19.7027027,16.1824324 L20.3952703,18.9864865 C20.0405405,19.0878378 19.6689189,19.1891892 19.3310811,19.2736486 L19.3310811,19.2567568 L17,19.847973 L17.4560811,21.6722973 C17.4560811,21.6722973 18.6891892,21.3344595 18.6722973,21.3682432 C19.347973,21.1993243 19.6689189,21.5371622 19.8209459,21.875 L20.6148649,25.0844595 C20.6824324,25.0675676 20.7331081,25.0506757 20.8006757,25.0506757 L20.6148649,25.1013514 L21.7128378,29.5945946 C21.7297297,29.8141892 21.6959459,30.2027027 21.222973,30.3209459 C21.2567568,30.3378378 19.9898649,30.625 19.9898649,30.625 L20.1587838,32.7533784 L22.3547297,32.1959459 C22.7601351,32.0945946 23.1655405,31.9932432 23.5540541,31.9087838 L24.2466216,34.7466216 L25.9358108,34.3243243 L25.2432432,31.5033784 C25.7162162,31.402027 26.1554054,31.2837838 26.5945946,31.1824324 L27.2871622,33.9864865 L28.9763514,33.5641892 L28.2837838,30.7263514 C31.0709459,29.847973 32.8783784,28.6148649 32.4560811,25.8445946 C32.1182432,23.6148649 30.8682432,22.9054054 29.1621622,22.9222973 C30.0236486,22.1621622 30.4121622,21.1148649 29.9054054,19.6621622 C29.2128378,17.6858108 27.3209459,17.4493243 25.1081081,17.8040541 L24.4155405,15 Z M29.0439189,26.3344595 C29.5675676,28.4628378 25.9189189,29.1216216 24.7871622,29.4087838 L23.8581081,25.6418919 C25.0067568,25.3716216 28.5033784,24.1385135 29.0439189,26.3344595 Z M26.9662162,21.2331081 C27.4391892,23.1587838 24.3986486,23.6993243 23.4527027,23.9358108 L22.6081081,20.5236486 C23.5540541,20.2702703 26.4594595,19.2060811 26.9662162,21.2331081 Z" id="Combined-Shape" fill="#F7931A" fill-rule="nonzero"></path>
    </g>
</svg>