<svg xmlns="http://www.w3.org/2000/svg" width="30" height="30" viewBox="0 0 30 30"><g><g><g><path fill="#f7931a" d="M29.551 18.629C27.548 26.664 19.408 31.554 11.37 29.55 3.336 27.548-1.555 19.408.45 11.373 2.451 3.336 10.591-1.555 18.626.449c8.037 2.003 12.928 10.144 10.924 18.18z"/></g><g><path fill="#fff" d="M13.872 13.516l.82-3.286c.93.231 3.922.664 3.438 2.603-.464 1.859-3.328.914-4.258.683zm3.75 4.62c-.51 2.043-3.95.939-5.067.661l.904-3.623c1.116.279 4.693.83 4.163 2.961zm3.76-5.274c.299-1.996-1.22-3.069-3.299-3.784l.674-2.704-1.646-.41-.657 2.632c-.432-.108-.876-.21-1.318-.31l.661-2.65-1.645-.41-.675 2.703a55.11 55.11 0 0 1-1.05-.247l.001-.009-2.27-.566-.438 1.757s1.222.28 1.196.298c.667.166.788.607.767.957l-.768 3.08c.046.012.105.028.171.055l-.173-.043-1.077 4.314c-.082.203-.289.507-.754.391.016.024-1.197-.298-1.197-.298l-.817 1.884 2.142.534c.399.1.79.204 1.173.303l-.68 2.735 1.643.41.675-2.705c.449.121.885.234 1.312.34l-.673 2.693 1.646.41.681-2.73c2.807.531 4.918.317 5.806-2.22.716-2.044-.035-3.223-1.512-3.992 1.075-.25 1.885-.957 2.101-2.418z"/></g></g></g></svg>