<?xml version="1.0" encoding="UTF-8"?>
<svg width="50px" height="50px" viewBox="0 0 50 50" version="1.1" xmlns="http://www.w3.org/2000/svg" xmlns:xlink="http://www.w3.org/1999/xlink">
    <title>Icons Crypto/Dash</title>
    <g id="Icons-Crypto/Dash" stroke="none" stroke-width="1" fill="none" fill-rule="evenodd">
        <g id="dash-5" fill-rule="nonzero">
            <circle id="Oval" fill="#008DE4" cx="24.9977716" cy="24.9977716" r="24.990004"></circle>
            <g id="Group" transform="translate(7.746371, 10.995941)" fill="#FFFFFF">
                <path d="M22.5942744,0.00530573333 L10.0409093,0.00530573333 L9.00098559,5.82038947 L20.334032,5.83630667 C25.9156635,5.83630667 27.5657465,7.8630968 27.5179949,11.221626 C27.4914663,12.9459893 26.7486636,15.8588369 26.4250139,16.8032575 C25.5654851,19.3181751 23.7986759,22.1938825 17.1771207,22.1832711 L6.15711253,22.1779653 L5.11188306,27.9983548 L17.6387195,27.9983548 C22.0583953,27.9983548 23.9366249,27.4836987 25.9262749,26.5658068 C30.3406451,24.5284052 32.9669831,20.1723981 34.0175183,14.4899577 C35.5880153,6.02731307 33.6355055,0.00530573333 22.5942744,0.00530573333" id="Path"></path>
                <path d="M4.61844986,11.0783712 C1.32889519,11.0783712 0.856684927,13.2218875 0.548952394,14.5164864 C0.140410927,16.2143211 0.0077675936,16.8987607 0.0077675936,16.8987607 L12.8635595,16.8987607 C16.1531141,16.8987607 16.6253244,14.7552444 16.9330569,13.4606455 C17.3415984,11.7628108 17.4742417,11.0783712 17.4742417,11.0783712 L4.61844986,11.0783712 Z" id="Path"></path>
            </g>
        </g>
    </g>
</svg>