<svg xmlns="http://www.w3.org/2000/svg" width="31" height="30" viewBox="0 0 31 30"><g><g><g><path fill="#bebebe" d="M30.5 15c0 8.284-6.716 15-15 15-8.284 0-15-6.716-15-15 0-8.284 6.716-15 15-15 8.284 0 15 6.716 15 15"/></g><g><path fill="#bebebe" d="M27.317 15.001c0 6.525-5.29 11.816-11.815 11.816-6.526 0-11.816-5.29-11.816-11.816 0-6.525 5.29-11.815 11.816-11.815 6.525 0 11.815 5.29 11.815 11.815"/></g><g><path fill="#fff" d="M14.621 19.005l.974-3.668 2.307-.843.574-2.156-.02-.053-2.27.83 1.636-6.161h-4.64l-2.14 8.039-1.786.653-.59 2.222 1.785-.652-1.261 4.738h12.348l.792-2.949H14.62"/></g></g></g></svg>