<?xml version="1.0" encoding="UTF-8"?>
<svg width="32px" height="32px" viewBox="0 0 32 32" version="1.1" xmlns="http://www.w3.org/2000/svg" xmlns:xlink="http://www.w3.org/1999/xlink">
    <title>Icons Crypto/Dogecoin</title>
    <g id="Back-end" stroke="none" stroke-width="1" fill="none" fill-rule="evenodd">
        <g id="Dashboard" transform="translate(-292.000000, -819.000000)" fill-rule="nonzero">
            <g id="Wallets" transform="translate(259.000000, 194.000000)">
                <g id="7" transform="translate(33.000000, 620.000000)">
                    <g id="Tether_Logo" transform="translate(0.000000, 5.000000)">
                        <circle id="Oval" fill="#26A17B" cx="15.9149206" cy="15.9728254" r="15.7968254"></circle>
                        <g id="Group" transform="translate(5.841270, 7.873016)" fill="#FFFFFF">
                            <path d="M11.7574603,9.5575873 L11.7574603,9.55504762 C11.648254,9.56266667 11.0844444,9.59568254 9.82984127,9.59568254 C8.82666667,9.59568254 8.1231746,9.56774603 7.87428571,9.55504762 L7.87428571,9.5575873 C4.01650794,9.38742857 1.13904762,8.71695238 1.13904762,7.91187302 C1.13904762,7.10933333 4.01904762,6.43631746 7.87428571,6.26615873 L7.87428571,8.88965079 C8.12571429,8.90742857 8.84952381,8.95060317 9.84761905,8.95060317 C11.0463492,8.95060317 11.6457143,8.89980952 11.7574603,8.88965079 L11.7574603,6.26869841 C15.607619,6.44139683 18.4774603,7.11187302 18.4774603,7.9144127 C18.4774603,8.71695238 15.6050794,9.38742857 11.7574603,9.56012698 M11.7574603,5.99695238 L11.7574603,3.65028571 L17.1288889,3.65028571 L17.1288889,0.0718730159 L2.50539683,0.0718730159 L2.50539683,3.65028571 L7.8768254,3.65028571 L7.8768254,5.99695238 C3.51111111,6.1975873 0.22984127,7.06107937 0.22984127,8.09726984 C0.22984127,9.13346032 3.51365079,9.99695238 7.8768254,10.200127 L7.8768254,17.7226667 L11.76,17.7226667 L11.76,10.200127 C16.1180952,9.99949206 19.3942857,9.136 19.3942857,8.09980952 C19.3942857,7.06615873 16.1180952,6.20012698 11.76,5.99949206" id="Shape"></path>
                        </g>
                    </g>
                </g>
            </g>
        </g>
    </g>
</svg>