<?xml version="1.0" encoding="UTF-8"?>
<svg width="50px" height="50px" viewBox="0 0 50 50" version="1.1" xmlns="http://www.w3.org/2000/svg" xmlns:xlink="http://www.w3.org/1999/xlink">
    <!-- Generator: Sketch 60 (88103) - https://sketch.com -->
    <title>Icons Crypto/Zcash</title>
    <desc>Created with Sketch.</desc>
    <defs>
        <linearGradient x1="15.7811956%" y1="84.2182661%" x2="84.8062655%" y2="15.1931962%" id="linearGradient-1">
            <stop stop-color="#CF8724" offset="0%"></stop>
            <stop stop-color="#FDCE58" offset="100%"></stop>
        </linearGradient>
    </defs>
    <g id="Icons-Crypto/Zcash" stroke="none" stroke-width="1" fill="none" fill-rule="evenodd">
        <g id="zcash-1" fill-rule="nonzero">
            <g id="Vector" transform="translate(4.562348, 4.562348)" fill="url(#linearGradient-1)">
                <path d="M20.6986364,41.3899242 C9.30659091,41.3899242 0.00734848485,32.0812121 0.00734848485,20.6986364 C0.00734848485,9.30659091 9.31606061,0.00734848485 20.6986364,0.00734848485 C32.0906818,0.00734848485 41.3899242,9.31606061 41.3899242,20.6986364 C41.3899242,32.0906818 32.0906818,41.3899242 20.6986364,41.3899242 Z" id="path0_fill"></path>
            </g>
            <g id="Vector_2_" fill="#000000">
                <path d="M25,50 C11.25,50 0,38.75 0,25 C0,11.25 11.25,0 25,0 C38.75,0 50,11.25 50,25 C50,38.75 38.75,50 25,50 Z M25,5.55871212 C14.3087121,5.55871212 5.55871212,14.3087121 5.55871212,25 C5.55871212,35.6912879 14.3087121,44.4412879 25,44.4412879 C35.6912879,44.4412879 44.4412879,35.6912879 44.4412879,25 C44.4412879,14.3087121 35.6912879,5.55871212 25,5.55871212 Z" id="path1_fill"></path>
            </g>
            <g id="Vector_4_" transform="translate(16.535947, 9.139299)" fill="#000000">
                <path d="M7.88507576,22.6325758 L18.7184091,22.6325758 L18.7184091,28.0492424 L12.3263636,28.0492424 L12.3263636,32.6325758 L6.76765152,32.6325758 L6.76765152,28.1912879 L0.100984848,28.1912879 C0.100984848,26.3825758 -0.173636364,24.5833333 0.243030303,22.9166667 C0.385075758,22.0833333 1.35098485,21.25 2.05174242,20.4166667 C4.13507576,17.9166667 6.21840909,15.4166667 8.44378788,12.9166667 C9.27712121,11.9412879 10.1104545,11.1079545 11.0858333,10 L0.669166667,10 L0.669166667,4.58333333 L6.77712121,4.58333333 L6.77712121,0 L12.1937879,0 L12.1937879,4.44128788 L18.8604545,4.44128788 C18.8604545,6.25 19.1350758,8.04924242 18.7184091,9.71590909 C18.5763636,10.5492424 17.6104545,11.3825758 16.909697,12.2159091 C14.8263636,14.7159091 12.7430303,17.2159091 10.5176515,19.7159091 C9.68431818,20.6912879 8.85098485,21.657197 7.88507576,22.6325758 L7.88507576,22.6325758 Z" id="path2_fill"></path>
            </g>
        </g>
    </g>
</svg>